<svg width="20" height="19" viewBox="0 0 20 19" fill="none" xmlns="http://www.w3.org/2000/svg">
<path d="M6.1 8H5V9.1H6.1V8ZM10.55 8H9.45V9.1H10.55V8ZM15 8H13.9V9.1H15V8ZM6.1 12.9H5V14H6.1V12.9ZM10.55 12.9H9.45V14H10.55V12.9ZM15 12.9H13.9V14H15V12.9ZM16 3V0.5C16 0.36739 15.9473 0.24021 15.8536 0.14645C15.7598 0.05268 15.6326 0 15.5 0C15.3674 0 15.2402 0.05268 15.1464 0.14645C15.0527 0.24021 15 0.36739 15 0.5V3H5V0.5C5 0.36739 4.94732 0.24021 4.85355 0.14645C4.75979 0.05268 4.63261 0 4.5 0C4.36739 0 4.24021 0.05268 4.14645 0.14645C4.05268 0.24021 4 0.36739 4 0.5V3H0V19H20V3H16ZM19 18H1V4H19V18Z" fill="black"/>
</svg>
