<svg width="150" height="19" viewBox="0 0 150 19" fill="none" xmlns="http://www.w3.org/2000/svg">
<path d="M5.664 18V3.84H0.096V1.2H14.352V3.84H8.784V18H5.664ZM24.3311 18.24C23.0191 18.24 21.8111 18.024 20.7071 17.592C19.6031 17.16 18.6431 16.56 17.8271 15.792C17.0111 15.008 16.3791 14.096 15.9311 13.056C15.4831 12 15.2591 10.848 15.2591 9.6C15.2591 8.352 15.4831 7.208 15.9311 6.168C16.3791 5.112 17.0111 4.2 17.8271 3.432C18.6431 2.648 19.6031 2.04 20.7071 1.608C21.8111 1.176 23.0111 0.959999 24.3071 0.959999C25.6191 0.959999 26.8191 1.176 27.9071 1.608C29.0111 2.04 29.9711 2.648 30.7871 3.432C31.6031 4.2 32.2351 5.112 32.6831 6.168C33.1311 7.208 33.3551 8.352 33.3551 9.6C33.3551 10.848 33.1311 12 32.6831 13.056C32.2351 14.112 31.6031 15.024 30.7871 15.792C29.9711 16.56 29.0111 17.16 27.9071 17.592C26.8191 18.024 25.6271 18.24 24.3311 18.24ZM24.3071 15.504C25.1551 15.504 25.9391 15.36 26.6591 15.072C27.3791 14.784 28.0031 14.376 28.5311 13.848C29.0591 13.304 29.4671 12.68 29.7551 11.976C30.0591 11.256 30.2111 10.464 30.2111 9.6C30.2111 8.736 30.0591 7.952 29.7551 7.248C29.4671 6.528 29.0591 5.904 28.5311 5.376C28.0031 4.832 27.3791 4.416 26.6591 4.128C25.9391 3.84 25.1551 3.696 24.3071 3.696C23.4591 3.696 22.6751 3.84 21.9551 4.128C21.2511 4.416 20.6271 4.832 20.0831 5.376C19.5551 5.904 19.1391 6.528 18.8351 7.248C18.5471 7.952 18.4031 8.736 18.4031 9.6C18.4031 10.448 18.5471 11.232 18.8351 11.952C19.1391 12.672 19.5551 13.304 20.0831 13.848C20.6111 14.376 21.2351 14.784 21.9551 15.072C22.6751 15.36 23.4591 15.504 24.3071 15.504ZM40.1066 18L34.5386 1.2H37.7786L42.7466 16.392H41.1386L46.2986 1.2H49.1786L54.1946 16.392H52.6346L57.7226 1.2H60.6986L55.1306 18H51.8186L47.2346 4.296H48.0986L43.4426 18H40.1066ZM63.2404 18V1.2H65.8084L76.3444 14.136H75.0724V1.2H78.1684V18H75.6004L65.0644 5.064H66.3364V18H63.2404ZM87.8781 18.24C86.5661 18.24 85.3101 18.056 84.1101 17.688C82.9101 17.304 81.9581 16.816 81.2541 16.224L82.3341 13.8C83.0061 14.328 83.8381 14.768 84.8301 15.12C85.8221 15.472 86.8381 15.648 87.8781 15.648C88.7581 15.648 89.4701 15.552 90.0141 15.36C90.5581 15.168 90.9581 14.912 91.2141 14.592C91.4701 14.256 91.5981 13.88 91.5981 13.464C91.5981 12.952 91.4141 12.544 91.0461 12.24C90.6781 11.92 90.1981 11.672 89.6061 11.496C89.0301 11.304 88.3821 11.128 87.6621 10.968C86.9581 10.808 86.2461 10.624 85.5261 10.416C84.8221 10.192 84.1741 9.912 83.5821 9.576C83.0061 9.224 82.5341 8.76 82.1661 8.184C81.7981 7.608 81.6141 6.872 81.6141 5.976C81.6141 5.064 81.8541 4.232 82.3341 3.48C82.8301 2.712 83.5741 2.104 84.5661 1.656C85.5741 1.192 86.8461 0.959999 88.3821 0.959999C89.3901 0.959999 90.3901 1.088 91.3821 1.344C92.3741 1.6 93.2381 1.968 93.9741 2.448L92.9901 4.872C92.2381 4.424 91.4621 4.096 90.6621 3.888C89.8621 3.664 89.0941 3.552 88.3581 3.552C87.4941 3.552 86.7901 3.656 86.2461 3.864C85.7181 4.072 85.3261 4.344 85.0701 4.68C84.8301 5.016 84.7101 5.4 84.7101 5.832C84.7101 6.344 84.8861 6.76 85.2381 7.08C85.6061 7.384 86.0781 7.624 86.6541 7.8C87.2461 7.976 87.9021 8.152 88.6221 8.328C89.3421 8.488 90.0541 8.672 90.7581 8.88C91.4781 9.088 92.1261 9.36 92.7021 9.696C93.2941 10.032 93.7661 10.488 94.1181 11.064C94.4861 11.64 94.6701 12.368 94.6701 13.248C94.6701 14.144 94.4221 14.976 93.9261 15.744C93.4461 16.496 92.7021 17.104 91.6941 17.568C90.6861 18.016 89.4141 18.24 87.8781 18.24ZM100.644 8.184H108.996V10.752H100.644V8.184ZM100.884 15.384H110.364V18H97.7638V1.2H110.028V3.816H100.884V15.384ZM113.842 18V1.2H116.41L126.946 14.136H125.674V1.2H128.77V18H126.202L115.666 5.064H116.938V18H113.842ZM133.272 18V1.2H140.616C142.44 1.2 144.04 1.552 145.416 2.256C146.792 2.96 147.864 3.936 148.632 5.184C149.4 6.432 149.784 7.904 149.784 9.6C149.784 11.28 149.4 12.752 148.632 14.016C147.864 15.264 146.792 16.24 145.416 16.944C144.04 17.648 142.44 18 140.616 18H133.272ZM136.392 15.36H140.472C141.736 15.36 142.824 15.12 143.736 14.64C144.664 14.16 145.376 13.488 145.872 12.624C146.384 11.76 146.64 10.752 146.64 9.6C146.64 8.432 146.384 7.424 145.872 6.576C145.376 5.712 144.664 5.04 143.736 4.56C142.824 4.08 141.736 3.84 140.472 3.84H136.392V15.36Z" fill="#326789"/>
</svg>
