<svg width="24" height="24" viewBox="0 0 24 24" fill="none" xmlns="http://www.w3.org/2000/svg">
<path d="M12 6.375C12.2982 6.37629 12.5842 6.49404 12.7969 6.70313L20.2969 14.2031C20.5082 14.4145 20.627 14.7011 20.627 15C20.627 15.2989 20.5082 15.5855 20.2969 15.7969C20.0855 16.0082 19.7989 16.127 19.5 16.127C19.2011 16.127 18.9145 16.0082 18.7031 15.7969L12 9.09375L5.29688 15.7969C5.08553 16.0082 4.79889 16.127 4.5 16.127C4.20112 16.127 3.91447 16.0082 3.70313 15.7969C3.49178 15.5855 3.37305 15.2989 3.37305 15C3.37305 14.7011 3.49178 14.4145 3.70313 14.2031L11.2031 6.70313C11.4158 6.49404 11.7018 6.37629 12 6.375Z" fill="#326789"/>
</svg>
