<svg width="16" height="17" viewBox="0 0 16 17" fill="none" xmlns="http://www.w3.org/2000/svg">
<path d="M7.99325 1.83325C4.31325 1.83325 1.33325 4.81992 1.33325 8.49992C1.33325 12.1799 4.31325 15.1666 7.99325 15.1666C11.6799 15.1666 14.6666 12.1799 14.6666 8.49992C14.6666 4.81992 11.6799 1.83325 7.99325 1.83325ZM12.6133 5.83325H10.6466C10.4379 5.00756 10.129 4.21052 9.72658 3.45992C10.9427 3.87859 11.9674 4.72107 12.6133 5.83325ZM7.99992 3.19325C8.55325 3.99325 8.98658 4.87992 9.27325 5.83325H6.72658C7.01325 4.87992 7.44658 3.99325 7.99992 3.19325ZM2.83992 9.83325C2.73325 9.40658 2.66659 8.95992 2.66659 8.49992C2.66659 8.03992 2.73325 7.59325 2.83992 7.16658H5.09325C5.03992 7.60659 4.99992 8.04659 4.99992 8.49992C4.99992 8.95325 5.03992 9.39325 5.09325 9.83325H2.83992ZM3.38658 11.1666H5.35325C5.56659 11.9999 5.87325 12.7999 6.27325 13.5399C5.0559 13.1235 4.03047 12.2805 3.38658 11.1666ZM5.35325 5.83325H3.38658C4.03047 4.71937 5.0559 3.8763 6.27325 3.45992C5.87087 4.21052 5.5619 5.00756 5.35325 5.83325ZM7.99992 13.8066C7.44658 13.0066 7.01325 12.1199 6.72658 11.1666H9.27325C8.98658 12.1199 8.55325 13.0066 7.99992 13.8066ZM9.55992 9.83325H6.43992C6.37992 9.39325 6.33325 8.95325 6.33325 8.49992C6.33325 8.04659 6.37992 7.59992 6.43992 7.16658H9.55992C9.61992 7.59992 9.66658 8.04659 9.66658 8.49992C9.66658 8.95325 9.61992 9.39325 9.55992 9.83325ZM9.72658 13.5399C10.1266 12.7999 10.4333 11.9999 10.6466 11.1666H12.6133C11.9674 12.2788 10.9427 13.1212 9.72658 13.5399ZM10.9066 9.83325C10.9599 9.39325 10.9999 8.95325 10.9999 8.49992C10.9999 8.04659 10.9599 7.60659 10.9066 7.16658H13.1599C13.2666 7.59325 13.3333 8.03992 13.3333 8.49992C13.3333 8.95992 13.2666 9.40658 13.1599 9.83325H10.9066Z" fill="#3D3D3D"/>
</svg>
