<svg width="22" height="18" viewBox="0 0 22 18" fill="none" xmlns="http://www.w3.org/2000/svg">
<path d="M11 18C10.872 18.0013 10.7459 17.969 10.6344 17.9063C10.2312 17.6813 0.875 12.3656 0.875 5.625C0.875 4.44441 1.24646 3.29375 1.93676 2.336C2.62707 1.37826 3.60121 0.661992 4.72122 0.288657C5.84122 -0.0846785 7.0503 -0.096152 8.17719 0.255861C9.30408 0.607875 10.2916 1.30553 11 2.25C11.7084 1.30553 12.6959 0.607875 13.8228 0.255861C14.9497 -0.096152 16.1588 -0.0846785 17.2788 0.288657C18.3988 0.661992 19.3729 1.37826 20.0632 2.336C20.7535 3.29375 21.125 4.44441 21.125 5.625C21.125 8.49375 19.4656 11.4375 16.1937 14.3813C14.708 15.7169 13.0903 16.898 11.3656 17.9063C11.2541 17.969 11.128 18.0013 11 18ZM6.5 1.5C5.40598 1.5 4.35677 1.9346 3.58318 2.70818C2.8096 3.48177 2.375 4.53098 2.375 5.625C2.375 10.8 9.3125 15.3469 11 16.3781C12.6875 15.3469 19.625 10.8 19.625 5.625C19.6259 4.6714 19.2963 3.74695 18.6924 3.00894C18.0885 2.27093 17.2476 1.76495 16.3127 1.57708C15.3777 1.38922 14.4066 1.53107 13.5645 1.97851C12.7224 2.42595 12.0613 3.15134 11.6937 4.03125C11.6372 4.16881 11.5411 4.28646 11.4176 4.36926C11.2941 4.45207 11.1487 4.49628 11 4.49628C10.8513 4.49628 10.7059 4.45207 10.5824 4.36926C10.4589 4.28646 10.3628 4.16881 10.3062 4.03125C9.99408 3.27962 9.4656 2.63772 8.7879 2.18703C8.11021 1.73635 7.31387 1.49721 6.5 1.5Z" fill="black"/>
</svg>
