<svg width="30" height="30" viewBox="0 0 30 30" fill="none" xmlns="http://www.w3.org/2000/svg">
<rect width="30" height="30" rx="4" fill="#4C4C4C"/>
<g clip-path="url(#clip0_1694_3775)">
<path d="M15.0117 30.0234C23.3024 30.0234 30.0234 23.3024 30.0234 15.0117C30.0234 6.72096 23.3024 0 15.0117 0C6.72096 0 0 6.72096 0 15.0117C0 23.3024 6.72096 30.0234 15.0117 30.0234Z" fill="#4C4C4C"/>
<path fill-rule="evenodd" clip-rule="evenodd" d="M6.78098 14.8479C11.1535 12.9305 14.0764 11.6913 15.5495 11.0833C19.7116 9.35299 20.5768 9.04902 21.138 9.02563C21.2549 9.02563 21.5355 9.04902 21.7225 9.18931C21.8628 9.30623 21.9096 9.46991 21.933 9.58682C21.9564 9.70373 21.9797 9.96094 21.9564 10.1714C21.7225 12.533 20.7638 18.3086 20.2494 20.9508C20.039 22.0732 19.6181 22.4473 19.2206 22.4941C18.3554 22.5642 17.6773 21.9095 16.8355 21.3717C15.5261 20.5065 14.7779 19.9687 13.4918 19.127C12.0187 18.1449 12.9774 17.6071 13.8192 16.7419C14.0296 16.5081 17.8878 13.0241 17.9579 12.6967C17.9579 12.65 17.9813 12.5097 17.8878 12.4395C17.7942 12.3694 17.6773 12.3927 17.5838 12.4161C17.4435 12.4395 15.3391 13.8425 11.2471 16.6016C10.6391 17.0225 10.1013 17.2096 9.61029 17.2096C9.07249 17.2096 8.04365 16.9056 7.27202 16.6484C6.33671 16.3444 5.58847 16.1807 5.65861 15.6663C5.70538 15.4091 6.0795 15.1285 6.78098 14.8479Z" fill="white"/>
</g>
<defs>
<clipPath id="clip0_1694_3775">
<rect width="30" height="30" fill="white"/>
</clipPath>
</defs>
</svg>
