<svg width="30" height="30" viewBox="0 0 30 30" fill="none" xmlns="http://www.w3.org/2000/svg">
<rect width="30" height="30" rx="4" fill="#4C4C4C"/>
<path d="M15 30C6.717 30 0 23.283 0 15C0 6.717 6.717 0 15 0C23.283 0 30 6.717 30 15C30 23.283 23.283 30 15 30Z" fill="#4C4C4C"/>
<path fill-rule="evenodd" clip-rule="evenodd" d="M24.57 10.335C24.708 9.87001 24.57 9.53101 23.907 9.53101H21.72C21.165 9.53101 20.907 9.82501 20.769 10.149C20.769 10.149 19.656 12.861 18.081 14.622C17.571 15.132 17.34 15.294 17.061 15.294C16.923 15.294 16.722 15.132 16.722 14.667V10.335C16.722 9.78001 16.56 9.53101 16.098 9.53101H12.66C12.312 9.53101 12.102 9.78901 12.102 10.035C12.102 10.563 12.891 10.683 12.972 12.168V15.39C12.972 16.095 12.843 16.224 12.567 16.224C11.826 16.224 10.023 13.5 8.95199 10.383C8.74199 9.77701 8.53199 9.53401 7.97399 9.53401H5.78699C5.16299 9.53401 5.03699 9.82801 5.03699 10.152C5.03699 10.731 5.77799 13.605 8.48999 17.406C10.299 20.001 12.843 21.408 15.162 21.408C16.551 21.408 16.725 21.096 16.725 20.556V18.594C16.725 17.97 16.857 17.844 17.298 17.844C17.622 17.844 18.18 18.006 19.476 19.257C20.958 20.739 21.204 21.405 22.038 21.405H24.225C24.849 21.405 25.161 21.093 24.981 20.475C24.783 19.86 24.075 18.969 23.136 17.91C22.626 17.307 21.861 16.659 21.63 16.335C21.306 15.918 21.399 15.732 21.63 15.363C21.627 15.363 24.291 11.61 24.57 10.335Z" fill="white"/>
</svg>
