<svg width="72" height="72" viewBox="0 0 72 72" fill="none" xmlns="http://www.w3.org/2000/svg">
<circle cx="36" cy="36" r="36" fill="#191919"/>
<path d="M52.2198 16.6155H20.5714C18.3897 16.6155 16.6154 18.3898 16.6154 20.5715V44.3078C16.6154 46.4895 18.3897 48.2638 20.5714 48.2638H26.5055V55.715L38.9215 48.2638H52.2198C54.4015 48.2638 56.1758 46.4895 56.1758 44.3078V20.5715C56.1758 18.3898 54.4015 16.6155 52.2198 16.6155ZM52.2198 44.3078H37.8257L30.4615 48.7247V44.3078H20.5714V20.5715H52.2198V44.3078Z" fill="white"/>
<path d="M26.5055 26.5056H46.2857V30.4617H26.5055V26.5056ZM26.5055 34.4177H40.3516V38.3737H26.5055V34.4177Z" fill="white"/>
</svg>
