<svg width="201" height="71" viewBox="0 0 201 71" fill="none" xmlns="http://www.w3.org/2000/svg">
<g clip-path="url(#clip0_3843_15009)">
<mask id="mask0_3843_15009" style="mask-type:luminance" maskUnits="userSpaceOnUse" x="75" y="0" width="51" height="50">
<path d="M125.5 0H75.5V50H125.5V0Z" fill="white"/>
</mask>
<g mask="url(#mask0_3843_15009)">
<path d="M120.903 24.7181C121.668 22.6165 121.78 20.333 121.226 18.1664C120.671 15.9999 119.475 14.0513 117.794 12.5759C116.114 11.1004 114.027 10.1668 111.806 9.89737C109.586 9.62791 107.337 10.0351 105.352 11.0657C103.15 9.00147 100.353 7.68385 97.3596 7.3001C94.3659 6.91637 91.3275 7.48603 88.6761 8.92812C86.0247 10.3702 83.8954 12.6114 82.5908 15.333C81.2861 18.0546 80.8725 21.1181 81.4088 24.0883C79.4135 24.8311 77.7428 26.2517 76.6891 28.1019C75.6355 29.9519 75.2659 32.1136 75.6451 34.2088C76.0243 36.3038 77.1281 38.1988 78.7634 39.5621C80.3987 40.9256 82.4614 41.6706 84.5905 41.6667H116.409C118.413 41.6731 120.362 41.0152 121.953 39.7958C123.543 38.5763 124.684 36.8642 125.198 34.9271C125.711 32.9902 125.569 30.9375 124.791 29.0902C124.014 27.2431 122.647 25.7056 120.903 24.7181ZM116.409 40.4167H84.5905C82.7541 40.4208 80.9748 39.7788 79.5641 38.6029C78.1534 37.4273 77.2013 35.7927 76.8743 33.9856C76.5474 32.1788 76.8665 30.3142 77.7758 28.7188C78.6851 27.1231 80.1266 25.8983 81.848 25.2588L82.8238 24.8925L82.6388 23.8665C82.1412 21.1525 82.5136 18.3508 83.703 15.8612C84.8924 13.3715 86.838 11.3213 89.2619 10.0032C91.6858 8.68501 94.4642 8.16635 97.2005 8.52122C99.9367 8.8761 102.491 10.0863 104.498 11.9792L105.138 12.5769L105.918 12.1811C107.299 11.4599 108.832 11.078 110.39 11.0669C113.026 11.0697 115.553 12.1179 117.417 13.9815C119.281 15.8451 120.33 18.372 120.333 21.0077C120.321 22.1325 120.116 23.2469 119.725 24.3017L119.378 25.2842L120.282 25.8025C121.787 26.6529 122.967 27.9783 123.638 29.5713C124.309 31.1642 124.433 32.9348 123.99 34.6056C123.548 36.2765 122.563 37.7533 121.191 38.8048C119.819 39.8565 118.137 40.4233 116.409 40.4167ZM101.02 29.3415V18.75H99.9788V29.3415L96.1699 25.5323L95.4326 26.2698L100.5 31.3367L105.567 26.2708L104.829 25.5333L101.02 29.3415Z" fill="#B3B3B3"/>
</g>
</g>
<path d="M12.722 62.438C12.722 62.9327 12.596 63.376 12.344 63.768C12.092 64.1507 11.7513 64.454 11.322 64.678C10.902 64.8927 10.44 65 9.936 65H5.246V55.06H10.034C10.5007 55.06 10.902 55.186 11.238 55.438C11.5833 55.6807 11.8447 55.998 12.022 56.39C12.2087 56.7727 12.302 57.174 12.302 57.594C12.302 58.0887 12.176 58.546 11.924 58.966C11.672 59.386 11.322 59.6987 10.874 59.904C11.4433 60.072 11.8913 60.3847 12.218 60.842C12.554 61.2993 12.722 61.8313 12.722 62.438ZM11.742 62.27C11.742 61.934 11.6673 61.626 11.518 61.346C11.3687 61.0567 11.1633 60.8233 10.902 60.646C10.65 60.4687 10.3607 60.38 10.034 60.38H6.226V64.146H9.936C10.272 64.146 10.5753 64.0573 10.846 63.88C11.1167 63.7027 11.3313 63.474 11.49 63.194C11.658 62.9047 11.742 62.5967 11.742 62.27ZM6.226 55.914V59.582H9.642C9.96867 59.582 10.258 59.498 10.51 59.33C10.762 59.1527 10.9627 58.924 11.112 58.644C11.2613 58.364 11.336 58.0653 11.336 57.748C11.336 57.412 11.266 57.1087 11.126 56.838C10.986 56.558 10.7947 56.334 10.552 56.166C10.3093 55.998 10.034 55.914 9.726 55.914H6.226ZM14.3602 65V57.706H15.3122V60.282H16.9642C17.7949 60.282 18.4202 60.4967 18.8402 60.926C19.2696 61.346 19.4842 61.9013 19.4842 62.592C19.4842 63.04 19.3909 63.446 19.2042 63.81C19.0176 64.174 18.7422 64.4633 18.3782 64.678C18.0236 64.8927 17.5756 65 17.0342 65H14.3602ZM15.3122 64.244H16.9082C17.2909 64.244 17.5989 64.1693 17.8322 64.02C18.0656 63.8613 18.2382 63.6607 18.3502 63.418C18.4622 63.166 18.5182 62.8953 18.5182 62.606C18.5182 62.326 18.4669 62.0693 18.3642 61.836C18.2709 61.5933 18.1029 61.402 17.8602 61.262C17.6269 61.1127 17.3002 61.038 16.8802 61.038H15.3122V64.244ZM20.8142 65V57.72H21.7662V65H20.8142ZM27.2085 65.14C26.0325 65.14 25.1412 64.7807 24.5345 64.062C23.9372 63.334 23.6385 62.3307 23.6385 61.052C23.6385 60.1467 23.7132 59.3813 23.8625 58.756C24.0118 58.1307 24.2312 57.6173 24.5205 57.216C24.8098 56.8053 25.1645 56.4693 25.5845 56.208C26.0138 55.9467 26.5038 55.732 27.0545 55.564L30.1205 54.556L30.2045 55.382L27.2505 56.348C26.6905 56.5347 26.2238 56.7727 25.8505 57.062C25.4772 57.3513 25.1832 57.72 24.9685 58.168C24.7632 58.6067 24.6278 59.1807 24.5625 59.89C24.8052 59.3487 25.1785 58.9333 25.6825 58.644C26.1865 58.3453 26.7698 58.196 27.4325 58.196C28.1418 58.196 28.7438 58.3407 29.2385 58.63C29.7425 58.9193 30.1252 59.3207 30.3865 59.834C30.6478 60.3473 30.7785 60.94 30.7785 61.612C30.7785 62.3213 30.6385 62.942 30.3585 63.474C30.0878 63.9967 29.6865 64.4073 29.1545 64.706C28.6318 64.9953 27.9832 65.14 27.2085 65.14ZM27.2085 64.3C28.0392 64.3 28.6785 64.062 29.1265 63.586C29.5838 63.1007 29.8125 62.4567 29.8125 61.654C29.8125 60.87 29.5885 60.2307 29.1405 59.736C28.7018 59.2413 28.0578 58.994 27.2085 58.994C26.7232 58.994 26.2845 59.0967 25.8925 59.302C25.5005 59.5073 25.1878 59.806 24.9545 60.198C24.7305 60.59 24.6185 61.0753 24.6185 61.654C24.6185 62.158 24.7165 62.6107 24.9125 63.012C25.1178 63.4133 25.4118 63.7307 25.7945 63.964C26.1772 64.188 26.6485 64.3 27.2085 64.3ZM35.5301 65.14C35.0074 65.14 34.5221 65.042 34.0741 64.846C33.6261 64.6407 33.2387 64.3653 32.9121 64.02C32.5854 63.6653 32.3287 63.2593 32.1421 62.802C31.9647 62.3447 31.8761 61.8547 31.8761 61.332C31.8761 60.6507 32.0301 60.0253 32.3381 59.456C32.6554 58.8867 33.0894 58.434 33.6401 58.098C34.1907 57.7527 34.8161 57.58 35.5161 57.58C36.2347 57.58 36.8601 57.7527 37.3921 58.098C37.9334 58.4433 38.3581 58.9007 38.6661 59.47C38.9741 60.03 39.1281 60.646 39.1281 61.318C39.1281 61.3927 39.1281 61.4673 39.1281 61.542C39.1281 61.6073 39.1234 61.6587 39.1141 61.696H32.8701C32.9167 62.2187 33.0614 62.6853 33.3041 63.096C33.5561 63.4973 33.8781 63.8193 34.2701 64.062C34.6714 64.2953 35.1054 64.412 35.5721 64.412C36.0481 64.412 36.4961 64.2907 36.9161 64.048C37.3454 63.8053 37.6441 63.488 37.8121 63.096L38.6381 63.32C38.4887 63.6653 38.2601 63.978 37.9521 64.258C37.6441 64.538 37.2801 64.7573 36.8601 64.916C36.4494 65.0653 36.0061 65.14 35.5301 65.14ZM32.8421 61.01H38.2321C38.1947 60.478 38.0501 60.0113 37.7981 59.61C37.5554 59.2087 37.2334 58.896 36.8321 58.672C36.4401 58.4387 36.0061 58.322 35.5301 58.322C35.0541 58.322 34.6201 58.4387 34.2281 58.672C33.8361 58.896 33.5141 59.2133 33.2621 59.624C33.0194 60.0253 32.8794 60.4873 32.8421 61.01ZM44.3209 65.14C43.7142 65.14 43.1682 64.9813 42.6829 64.664C42.2069 64.3467 41.8289 63.9547 41.5489 63.488V67.982H40.5969V57.706H41.4509V59.12C41.7402 58.6627 42.1275 58.294 42.6129 58.014C43.0982 57.7247 43.6162 57.58 44.1669 57.58C44.6709 57.58 45.1329 57.6873 45.5529 57.902C45.9729 58.1073 46.3369 58.3873 46.6449 58.742C46.9529 59.0967 47.1909 59.5027 47.3589 59.96C47.5362 60.408 47.6249 60.8747 47.6249 61.36C47.6249 62.0413 47.4849 62.6713 47.2049 63.25C46.9342 63.8193 46.5515 64.2767 46.0569 64.622C45.5622 64.9673 44.9835 65.14 44.3209 65.14ZM44.0549 64.3C44.4562 64.3 44.8155 64.2207 45.1329 64.062C45.4502 63.894 45.7209 63.67 45.9449 63.39C46.1782 63.11 46.3555 62.7973 46.4769 62.452C46.5982 62.0973 46.6589 61.7333 46.6589 61.36C46.6589 60.968 46.5889 60.5947 46.4489 60.24C46.3182 59.8853 46.1269 59.5727 45.8749 59.302C45.6229 59.0313 45.3335 58.8167 45.0069 58.658C44.6802 58.4993 44.3255 58.42 43.9429 58.42C43.7002 58.42 43.4482 58.4667 43.1869 58.56C42.9255 58.6533 42.6735 58.7887 42.4309 58.966C42.1975 59.134 42.0015 59.3253 41.8429 59.54C41.6842 59.7547 41.5862 59.9833 41.5489 60.226V62.466C41.6982 62.8113 41.8989 63.124 42.1509 63.404C42.4029 63.6747 42.6922 63.894 43.0189 64.062C43.3549 64.2207 43.7002 64.3 44.0549 64.3ZM49.2235 65V57.72H50.1755V63.712L54.6135 57.706H55.4675V65H54.5155V59.106L50.1475 65H49.2235ZM59.37 65V58.56H56.766V57.706H62.926V58.56H60.322V65H59.37ZM67.3719 65.14C66.8492 65.14 66.3639 65.042 65.9159 64.846C65.4679 64.6407 65.0805 64.3653 64.7539 64.02C64.4272 63.6653 64.1705 63.2593 63.9839 62.802C63.8065 62.3447 63.7179 61.8547 63.7179 61.332C63.7179 60.6507 63.8719 60.0253 64.1799 59.456C64.4972 58.8867 64.9312 58.434 65.4819 58.098C66.0325 57.7527 66.6579 57.58 67.3579 57.58C68.0765 57.58 68.7019 57.7527 69.2339 58.098C69.7752 58.4433 70.1999 58.9007 70.5079 59.47C70.8159 60.03 70.9699 60.646 70.9699 61.318C70.9699 61.3927 70.9699 61.4673 70.9699 61.542C70.9699 61.6073 70.9652 61.6587 70.9559 61.696H64.7119C64.7585 62.2187 64.9032 62.6853 65.1459 63.096C65.3979 63.4973 65.7199 63.8193 66.1119 64.062C66.5132 64.2953 66.9472 64.412 67.4139 64.412C67.8899 64.412 68.3379 64.2907 68.7579 64.048C69.1872 63.8053 69.4859 63.488 69.6539 63.096L70.4799 63.32C70.3305 63.6653 70.1019 63.978 69.7939 64.258C69.4859 64.538 69.1219 64.7573 68.7019 64.916C68.2912 65.0653 67.8479 65.14 67.3719 65.14ZM64.6839 61.01H70.0739C70.0365 60.478 69.8919 60.0113 69.6399 59.61C69.3972 59.2087 69.0752 58.896 68.6739 58.672C68.2819 58.4387 67.8479 58.322 67.3719 58.322C66.8959 58.322 66.4619 58.4387 66.0699 58.672C65.6779 58.896 65.3559 59.2133 65.1039 59.624C64.8612 60.0253 64.7212 60.4873 64.6839 61.01ZM79.367 67.982V65H79.045C78.3264 65 77.701 64.832 77.169 64.496C76.637 64.16 76.2264 63.7213 75.937 63.18C75.6477 62.6293 75.503 62.0273 75.503 61.374C75.503 60.7113 75.6477 60.1047 75.937 59.554C76.2357 59.0033 76.651 58.56 77.183 58.224C77.715 57.888 78.3357 57.72 79.045 57.72H79.367V54.78H80.319V57.72H80.641C81.3504 57.72 81.971 57.888 82.503 58.224C83.035 58.56 83.4457 59.0033 83.735 59.554C84.0337 60.1047 84.183 60.7113 84.183 61.374C84.183 62.0273 84.0384 62.6293 83.749 63.18C83.4597 63.7213 83.049 64.16 82.517 64.496C81.985 64.832 81.3597 65 80.641 65H80.319V67.982H79.367ZM79.045 64.202H79.395V58.518H79.045C78.541 58.518 78.093 58.6487 77.701 58.91C77.309 59.162 77.001 59.5073 76.777 59.946C76.553 60.3753 76.441 60.856 76.441 61.388C76.441 61.9107 76.5484 62.3867 76.763 62.816C76.987 63.2453 77.295 63.586 77.687 63.838C78.079 64.0807 78.5317 64.202 79.045 64.202ZM80.277 64.202H80.641C81.1544 64.202 81.607 64.0807 81.999 63.838C82.391 63.586 82.6944 63.2453 82.909 62.816C83.133 62.3867 83.245 61.9107 83.245 61.388C83.245 60.856 83.133 60.3753 82.909 59.946C82.685 59.5073 82.377 59.162 81.985 58.91C81.6024 58.6487 81.1544 58.518 80.641 58.518H80.277V64.202ZM85.1944 62.9C85.1944 62.4427 85.3251 62.0507 85.5864 61.724C85.8478 61.388 86.2071 61.1313 86.6644 60.954C87.1311 60.7673 87.6678 60.674 88.2744 60.674C88.6291 60.674 88.9978 60.702 89.3804 60.758C89.7631 60.814 90.1038 60.898 90.4024 61.01V60.394C90.4024 59.778 90.2204 59.288 89.8564 58.924C89.4924 58.56 88.9884 58.378 88.3444 58.378C87.9524 58.378 87.5651 58.4527 87.1824 58.602C86.8091 58.742 86.4171 58.952 86.0064 59.232L85.6424 58.56C86.1184 58.2333 86.5851 57.9907 87.0424 57.832C87.4998 57.664 87.9664 57.58 88.4424 57.58C89.3384 57.58 90.0478 57.8367 90.5704 58.35C91.0931 58.8633 91.3544 59.5727 91.3544 60.478V63.852C91.3544 63.9827 91.3824 64.0807 91.4384 64.146C91.4944 64.202 91.5831 64.2347 91.7044 64.244V65C91.6018 65.0093 91.5131 65.0187 91.4384 65.028C91.3638 65.0373 91.3078 65.0373 91.2704 65.028C91.0371 65.0187 90.8598 64.944 90.7384 64.804C90.6171 64.664 90.5518 64.5147 90.5424 64.356L90.5284 63.824C90.2018 64.244 89.7771 64.5707 89.2544 64.804C88.7318 65.028 88.1998 65.14 87.6584 65.14C87.1918 65.14 86.7671 65.042 86.3844 64.846C86.0111 64.6407 85.7171 64.37 85.5024 64.034C85.2971 63.6887 85.1944 63.3107 85.1944 62.9ZM90.0804 63.46C90.1831 63.3293 90.2624 63.2033 90.3184 63.082C90.3744 62.9607 90.4024 62.8533 90.4024 62.76V61.696C90.0851 61.5747 89.7538 61.4813 89.4084 61.416C89.0724 61.3507 88.7318 61.318 88.3864 61.318C87.7051 61.318 87.1544 61.4533 86.7344 61.724C86.3144 61.9947 86.1044 62.3633 86.1044 62.83C86.1044 63.1007 86.1744 63.3573 86.3144 63.6C86.4544 63.8333 86.6598 64.0293 86.9304 64.188C87.2011 64.3373 87.5184 64.412 87.8824 64.412C88.3398 64.412 88.7644 64.3233 89.1564 64.146C89.5578 63.9687 89.8658 63.74 90.0804 63.46ZM93.3973 65V57.72H94.3493V63.712L98.7873 57.706H99.6413V65H98.6893V59.106L94.3213 65H93.3973ZM96.5333 56.782C95.8987 56.782 95.4087 56.6327 95.0633 56.334C94.718 56.0353 94.5453 55.6573 94.5453 55.2H95.2453C95.2453 55.48 95.348 55.7133 95.5533 55.9C95.768 56.0867 96.0947 56.18 96.5333 56.18C96.9627 56.18 97.2753 56.0913 97.4713 55.914C97.6767 55.7367 97.7933 55.4987 97.8213 55.2H98.5073C98.5073 55.6573 98.3347 56.0353 97.9893 56.334C97.644 56.6327 97.1587 56.782 96.5333 56.782ZM101.024 65.042V64.174C101.276 64.174 101.5 64.1087 101.696 63.978C101.892 63.838 102.064 63.6047 102.214 63.278C102.372 62.9513 102.498 62.5033 102.592 61.934C102.685 61.3553 102.746 60.6227 102.774 59.736L102.858 57.706H107.59V65H106.638V58.56H103.698L103.67 59.82C103.632 60.828 103.553 61.6727 103.432 62.354C103.31 63.026 103.138 63.558 102.914 63.95C102.699 64.342 102.433 64.622 102.116 64.79C101.798 64.958 101.434 65.042 101.024 65.042ZM112.451 66.694V64.146H112.577C112.792 64.146 112.988 64.0807 113.165 63.95C113.342 63.8193 113.501 63.5907 113.641 63.264C113.781 62.9373 113.893 62.4893 113.977 61.92C114.061 61.3413 114.117 60.6133 114.145 59.736L114.215 57.706H118.961V64.146H119.941V66.694H119.087V65H113.291V66.694H112.451ZM114.019 64.146H118.009V58.56H115.069L115.027 59.82C114.999 60.688 114.938 61.416 114.845 62.004C114.761 62.5827 114.649 63.0447 114.509 63.39C114.378 63.726 114.215 63.978 114.019 64.146ZM120.684 65.042V64.174C120.936 64.174 121.16 64.1087 121.356 63.978C121.552 63.838 121.725 63.6047 121.874 63.278C122.033 62.9513 122.159 62.5033 122.252 61.934C122.345 61.3553 122.406 60.6227 122.434 59.736L122.518 57.706H127.25V65H126.298V58.56H123.358L123.33 59.82C123.293 60.828 123.213 61.6727 123.092 62.354C122.971 63.026 122.798 63.558 122.574 63.95C122.359 64.342 122.093 64.622 121.776 64.79C121.459 64.958 121.095 65.042 120.684 65.042ZM128.809 65L130.979 62.018C130.484 61.9433 130.083 61.7287 129.775 61.374C129.476 61.01 129.327 60.5153 129.327 59.89C129.327 59.47 129.425 59.0967 129.621 58.77C129.817 58.4433 130.092 58.182 130.447 57.986C130.811 57.79 131.235 57.692 131.721 57.692H134.507V65H133.555V62.172H131.931L129.873 65H128.809ZM131.707 61.444H133.555V58.448H131.875C131.389 58.448 131.002 58.588 130.713 58.868C130.423 59.1387 130.279 59.484 130.279 59.904C130.279 60.3333 130.395 60.6973 130.629 60.996C130.871 61.2947 131.231 61.444 131.707 61.444ZM142.283 65.084C141.611 65.084 141.037 64.958 140.561 64.706C140.085 64.4447 139.721 64.0807 139.469 63.614L140.253 63.264C140.43 63.5907 140.687 63.8473 141.023 64.034C141.359 64.2113 141.765 64.3 142.241 64.3C142.81 64.3 143.263 64.1693 143.599 63.908C143.944 63.6467 144.117 63.2967 144.117 62.858C144.117 62.4567 143.982 62.1347 143.711 61.892C143.44 61.6493 143.067 61.5233 142.591 61.514H141.849V60.856H142.647C142.852 60.856 143.039 60.8 143.207 60.688C143.375 60.576 143.506 60.4267 143.599 60.24C143.692 60.0533 143.739 59.8433 143.739 59.61C143.739 59.246 143.608 58.952 143.347 58.728C143.095 58.504 142.722 58.392 142.227 58.392C141.816 58.392 141.471 58.476 141.191 58.644C140.92 58.8027 140.701 59.0407 140.533 59.358L139.805 58.966C140.02 58.5367 140.337 58.2007 140.757 57.958C141.186 57.7153 141.686 57.594 142.255 57.594C142.722 57.594 143.128 57.6733 143.473 57.832C143.828 57.9813 144.103 58.2007 144.299 58.49C144.504 58.77 144.607 59.1107 144.607 59.512C144.607 59.8573 144.523 60.1793 144.355 60.478C144.187 60.7673 143.954 60.9867 143.655 61.136C144.084 61.2667 144.416 61.4953 144.649 61.822C144.892 62.1487 145.013 62.5313 145.013 62.97C145.013 63.4087 144.896 63.7867 144.663 64.104C144.43 64.4213 144.108 64.664 143.697 64.832C143.286 65 142.815 65.084 142.283 65.084ZM146.021 62.9C146.021 62.4427 146.151 62.0507 146.413 61.724C146.674 61.388 147.033 61.1313 147.491 60.954C147.957 60.7673 148.494 60.674 149.101 60.674C149.455 60.674 149.824 60.702 150.207 60.758C150.589 60.814 150.93 60.898 151.229 61.01V60.394C151.229 59.778 151.047 59.288 150.683 58.924C150.319 58.56 149.815 58.378 149.171 58.378C148.779 58.378 148.391 58.4527 148.009 58.602C147.635 58.742 147.243 58.952 146.833 59.232L146.469 58.56C146.945 58.2333 147.411 57.9907 147.869 57.832C148.326 57.664 148.793 57.58 149.269 57.58C150.165 57.58 150.874 57.8367 151.397 58.35C151.919 58.8633 152.181 59.5727 152.181 60.478V63.852C152.181 63.9827 152.209 64.0807 152.265 64.146C152.321 64.202 152.409 64.2347 152.531 64.244V65C152.428 65.0093 152.339 65.0187 152.265 65.028C152.19 65.0373 152.134 65.0373 152.097 65.028C151.863 65.0187 151.686 64.944 151.565 64.804C151.443 64.664 151.378 64.5147 151.369 64.356L151.355 63.824C151.028 64.244 150.603 64.5707 150.081 64.804C149.558 65.028 149.026 65.14 148.485 65.14C148.018 65.14 147.593 65.042 147.211 64.846C146.837 64.6407 146.543 64.37 146.329 64.034C146.123 63.6887 146.021 63.3107 146.021 62.9ZM150.907 63.46C151.009 63.3293 151.089 63.2033 151.145 63.082C151.201 62.9607 151.229 62.8533 151.229 62.76V61.696C150.911 61.5747 150.58 61.4813 150.235 61.416C149.899 61.3507 149.558 61.318 149.213 61.318C148.531 61.318 147.981 61.4533 147.561 61.724C147.141 61.9947 146.931 62.3633 146.931 62.83C146.931 63.1007 147.001 63.3573 147.141 63.6C147.281 63.8333 147.486 64.0293 147.757 64.188C148.027 64.3373 148.345 64.412 148.709 64.412C149.166 64.412 149.591 64.3233 149.983 64.146C150.384 63.9687 150.692 63.74 150.907 63.46ZM154.224 65V57.706H158.578V58.56H155.176V65H154.224ZM163.635 65.14C163.029 65.14 162.483 64.9813 161.997 64.664C161.521 64.3467 161.143 63.9547 160.863 63.488V67.982H159.911V57.706H160.765V59.12C161.055 58.6627 161.442 58.294 161.927 58.014C162.413 57.7247 162.931 57.58 163.481 57.58C163.985 57.58 164.447 57.6873 164.867 57.902C165.287 58.1073 165.651 58.3873 165.959 58.742C166.267 59.0967 166.505 59.5027 166.673 59.96C166.851 60.408 166.939 60.8747 166.939 61.36C166.939 62.0413 166.799 62.6713 166.519 63.25C166.249 63.8193 165.866 64.2767 165.371 64.622C164.877 64.9673 164.298 65.14 163.635 65.14ZM163.369 64.3C163.771 64.3 164.13 64.2207 164.447 64.062C164.765 63.894 165.035 63.67 165.259 63.39C165.493 63.11 165.67 62.7973 165.791 62.452C165.913 62.0973 165.973 61.7333 165.973 61.36C165.973 60.968 165.903 60.5947 165.763 60.24C165.633 59.8853 165.441 59.5727 165.189 59.302C164.937 59.0313 164.648 58.8167 164.321 58.658C163.995 58.4993 163.64 58.42 163.257 58.42C163.015 58.42 162.763 58.4667 162.501 58.56C162.24 58.6533 161.988 58.7887 161.745 58.966C161.512 59.134 161.316 59.3253 161.157 59.54C160.999 59.7547 160.901 59.9833 160.863 60.226V62.466C161.013 62.8113 161.213 63.124 161.465 63.404C161.717 63.6747 162.007 63.894 162.333 64.062C162.669 64.2207 163.015 64.3 163.369 64.3ZM169.104 68.052C168.945 68.052 168.782 68.024 168.614 67.968C168.455 67.9213 168.292 67.8513 168.124 67.758L168.474 67.086C168.577 67.142 168.67 67.1887 168.754 67.226C168.847 67.2633 168.945 67.282 169.048 67.282C169.291 67.282 169.519 67.1607 169.734 66.918C169.949 66.6753 170.154 66.3207 170.35 65.854L170.714 64.944L167.466 57.706H168.474L171.148 64.02L173.612 57.706H174.564L171.092 66.148C170.905 66.5867 170.709 66.946 170.504 67.226C170.299 67.506 170.079 67.7113 169.846 67.842C169.613 67.982 169.365 68.052 169.104 68.052ZM178.008 65.084C177.336 65.084 176.762 64.958 176.286 64.706C175.81 64.4447 175.446 64.0807 175.194 63.614L175.978 63.264C176.155 63.5907 176.412 63.8473 176.748 64.034C177.084 64.2113 177.49 64.3 177.966 64.3C178.535 64.3 178.988 64.1693 179.324 63.908C179.669 63.6467 179.842 63.2967 179.842 62.858C179.842 62.4567 179.706 62.1347 179.436 61.892C179.165 61.6493 178.792 61.5233 178.316 61.514H177.574V60.856H178.372C178.577 60.856 178.764 60.8 178.932 60.688C179.1 60.576 179.23 60.4267 179.324 60.24C179.417 60.0533 179.464 59.8433 179.464 59.61C179.464 59.246 179.333 58.952 179.072 58.728C178.82 58.504 178.446 58.392 177.952 58.392C177.541 58.392 177.196 58.476 176.916 58.644C176.645 58.8027 176.426 59.0407 176.258 59.358L175.53 58.966C175.744 58.5367 176.062 58.2007 176.482 57.958C176.911 57.7153 177.41 57.594 177.98 57.594C178.446 57.594 178.852 57.6733 179.198 57.832C179.552 57.9813 179.828 58.2007 180.024 58.49C180.229 58.77 180.332 59.1107 180.332 59.512C180.332 59.8573 180.248 60.1793 180.08 60.478C179.912 60.7673 179.678 60.9867 179.38 61.136C179.809 61.2667 180.14 61.4953 180.374 61.822C180.616 62.1487 180.738 62.5313 180.738 62.97C180.738 63.4087 180.621 63.7867 180.388 64.104C180.154 64.4213 179.832 64.664 179.422 64.832C179.011 65 178.54 65.084 178.008 65.084ZM182.319 65V57.706H183.271V60.828H184.363L186.813 57.706H187.905L185.119 61.248L188.255 65H187.135L184.363 61.71H183.271V65H182.319ZM189.593 65V57.72H190.545V63.712L194.983 57.706H195.837V65H194.885V59.106L190.517 65H189.593Z" fill="#B3B3B3"/>
<defs>
<clipPath id="clip0_3843_15009">
<rect width="50" height="50" fill="white" transform="translate(75.5)"/>
</clipPath>
</defs>
</svg>
