<svg width="24" height="24" viewBox="0 0 24 24" fill="#556EFE" xmlns="http://www.w3.org/2000/svg">
<path d="M16.185 19.368L13.764 16.9455C12.8278 17.2802 11.8157 17.3422 10.8456 17.1243C9.87554 16.9063 8.98729 16.4173 8.28423 15.7143C7.58117 15.0112 7.09221 14.123 6.87424 13.1529C6.65628 12.1828 6.71827 11.1707 7.053 10.2345L3.963 7.1445C1.407 9.417 0 12 0 12C0 12 4.5 20.25 12 20.25C13.4406 20.245 14.8649 19.9448 16.185 19.368ZM7.815 4.632C9.13508 4.05514 10.5594 3.75496 12 3.75C19.5 3.75 24 12 24 12C24 12 22.5915 14.5815 20.0385 16.857L16.9455 13.764C17.2802 12.8278 17.3422 11.8157 17.1243 10.8456C16.9063 9.87554 16.4173 8.98729 15.7143 8.28423C15.0112 7.58117 14.123 7.09221 13.1529 6.87424C12.1828 6.65628 11.1707 6.71827 10.2345 7.053L7.815 4.632Z" fill="black"/>
<path d="M8.28725 11.4692C8.20474 12.0457 8.25762 12.6335 8.44169 13.1859C8.62577 13.7384 8.93599 14.2404 9.34777 14.6522C9.75954 15.064 10.2616 15.3742 10.814 15.5583C11.3665 15.7424 11.9543 15.7952 12.5308 15.7127L8.28725 11.4692ZM15.7123 12.5312L11.4688 8.28624C12.0452 8.20373 12.633 8.25661 13.1855 8.44068C13.7379 8.62476 14.24 8.93498 14.6517 9.34676C15.0635 9.75853 15.3737 10.2606 15.5578 10.813C15.7419 11.3655 15.7948 11.9533 15.7123 12.5297V12.5312ZM20.4688 21.5312L2.46875 3.53124L3.53075 2.46924L21.5308 20.4692L20.4688 21.5312Z" fill="black"/>
</svg>
