<svg width="60" height="60" viewBox="0 0 60 60" fill="none" xmlns="http://www.w3.org/2000/svg">
<g clip-path="url(#clip0_157_648)">
<path d="M30.0234 60.0468C46.6048 60.0468 60.0468 46.6048 60.0468 30.0234C60.0468 13.4419 46.6048 0 30.0234 0C13.4419 0 0 13.4419 0 30.0234C0 46.6048 13.4419 60.0468 30.0234 60.0468Z" fill="url(#paint0_linear_157_648)"/>
<path fill-rule="evenodd" clip-rule="evenodd" d="M13.562 29.6959C22.3071 25.8611 28.1528 23.3825 31.099 22.1666C39.4232 18.706 41.1535 18.098 42.2759 18.0513C42.5097 18.0513 43.0709 18.098 43.4451 18.3786C43.7256 18.6125 43.8192 18.9398 43.8659 19.1736C43.9127 19.4075 43.9595 19.9219 43.9127 20.3428C43.4451 25.0661 41.5277 36.6171 40.4988 41.9016C40.0779 44.1464 39.2362 44.8946 38.4412 44.9881C36.7108 45.1284 35.3546 43.819 33.6711 42.7434C31.0522 41.0131 29.5557 39.9375 26.9836 38.2539C24.0374 36.2898 25.9548 35.2142 27.6383 33.4838C28.0592 33.0162 35.7755 26.0482 35.9158 25.3934C35.9158 25.2999 35.9626 25.0193 35.7755 24.879C35.5885 24.7387 35.3546 24.7855 35.1676 24.8323C34.887 24.879 30.6781 27.6849 22.4942 33.2033C21.2783 34.045 20.2027 34.4192 19.2206 34.4192C18.145 34.4192 16.0873 33.8112 14.544 33.2968C12.6734 32.6888 11.1769 32.3615 11.3172 31.3326C11.4108 30.8182 12.159 30.257 13.562 29.6959Z" fill="white"/>
</g>
<defs>
<linearGradient id="paint0_linear_157_648" x1="0" y1="30.0016" x2="60.0033" y2="30.0016" gradientUnits="userSpaceOnUse">
<stop stop-color="#2AABEE"/>
<stop offset="1" stop-color="#229ED9"/>
</linearGradient>
<clipPath id="clip0_157_648">
<rect width="60" height="60" fill="white"/>
</clipPath>
</defs>
</svg>
