<svg width="25" height="24" viewBox="0 0 25 24" fill="none" xmlns="http://www.w3.org/2000/svg">
<g clip-path="url(#clip0_407_408)">
<path d="M0.5 11.5C0.5 6.07885 0.5 3.36827 2.18413 1.68413C3.86827 0 6.57885 0 12 0H13C18.4212 0 21.1317 0 22.8158 1.68413C24.5 3.36827 24.5 6.07885 24.5 11.5V12.5C24.5 17.9212 24.5 20.6317 22.8158 22.3158C21.1317 24 18.4212 24 13 24H12C6.57885 24 3.86827 24 2.18413 22.3158C0.5 20.6317 0.5 17.9212 0.5 12.5L0.5 11.5Z" fill="#2787F5"/>
<path fill-rule="evenodd" clip-rule="evenodd" d="M7.00045 7.5H5.25005C4.74993 7.5 4.6499 7.7354 4.6499 7.9949C4.6499 8.45845 5.24333 10.7574 7.413 13.7979C8.85945 15.8744 10.8974 17 12.7518 17C13.8645 17 14.0021 16.75 14.0021 16.3194V14.75C14.0021 14.25 14.1075 14.1502 14.4598 14.1502C14.7195 14.1502 15.1645 14.28 16.203 15.2811C17.3899 16.4677 17.5855 17 18.2531 17H20.0035C20.5036 17 20.7537 16.75 20.6094 16.2567C20.4516 15.765 19.8849 15.0515 19.133 14.2058C18.725 13.7238 18.1131 13.2047 17.9276 12.9451C17.668 12.6114 17.7422 12.463 17.9276 12.1664C17.9276 12.1664 20.0602 9.16295 20.2828 8.1433C20.394 7.77245 20.2828 7.5 19.7534 7.5H18.003C17.558 7.5 17.3528 7.7354 17.2415 7.9949C17.2415 7.9949 16.3514 10.1641 15.0904 11.5731C14.6824 11.981 14.4969 12.1108 14.2744 12.1108C14.1631 12.1108 14.0021 11.981 14.0021 11.6103V8.1433C14.0021 7.6983 13.8729 7.5 13.502 7.5H10.7513C10.4732 7.5 10.3059 7.7065 10.3059 7.90225C10.3059 8.32405 10.9364 8.42135 11.0014 9.6079V12.185C11.0014 12.75 10.8993 12.8525 10.6768 12.8525C10.0834 12.8525 8.63995 10.6736 7.78385 8.18035C7.6161 7.69575 7.4478 7.5 7.00045 7.5Z" fill="white"/>
</g>
<defs>
<clipPath id="clip0_407_408">
<rect width="24" height="24" fill="white" transform="translate(0.5)"/>
</clipPath>
</defs>
</svg>
