<svg width="60" height="60" viewBox="0 0 60 60" fill="none" xmlns="http://www.w3.org/2000/svg">
<g clip-path="url(#clip0_157_649)">
<mask id="mask0_157_649" style="mask-type:luminance" maskUnits="userSpaceOnUse" x="5" y="5" width="50" height="50">
<mask id="mask1_157_649" style="mask-type:luminance" maskUnits="userSpaceOnUse" x="5" y="5" width="50" height="50">
<path d="M47.682 12.2739C42.9983 7.59817 36.7534 5.03224 30.1217 5.03224C16.443 5.01799 5.29956 16.1085 5.29956 29.7364C5.29956 34.4121 6.6173 38.9595 9.09522 42.8797L9.68247 43.8206L7.1759 52.9439L16.5719 50.492L17.4743 51.0337C21.2843 53.286 25.6529 54.4834 30.1074 54.4834H30.1217C43.8004 54.4834 54.9439 43.3929 54.9439 29.7792C54.9582 23.1506 52.38 16.9353 47.682 12.2739Z" fill="white"/>
</mask>
<g mask="url(#mask1_157_649)">
<path d="M30.1217 54.455C25.6529 54.455 21.2843 53.2575 17.4743 51.0052L16.5719 50.4635L7.1759 52.9154L9.68247 43.7921L9.09522 42.8513C6.60297 38.9169 5.29956 34.3695 5.29956 29.708C5.29956 16.1086 16.443 5.01807 30.136 5.01807C36.7677 5.01807 42.9983 7.59825 47.6963 12.2597C52.38 16.9354 54.9582 23.1364 54.9582 29.7365C54.9439 43.3787 43.8004 54.455 30.1217 54.455Z" fill="white"/>
</g>
</mask>
<g mask="url(#mask0_157_649)">
<path d="M118.825 105.688H-58.8543C-60.4298 105.688 -61.7046 104.419 -61.7046 102.851V-43.5636C-61.7046 -45.1317 -60.4298 -46.4004 -58.8543 -46.4004H118.825C120.401 -46.4004 121.676 -45.1317 121.676 -43.5636V102.865C121.676 104.434 120.401 105.688 118.825 105.688Z" fill="#25D366"/>
</g>
<path fill-rule="evenodd" clip-rule="evenodd" d="M51.2485 8.72416C45.6195 3.09337 38.1141 0 30.1217 0C13.6644 0 0.257818 13.3428 0.243495 29.722C0.243495 34.9679 1.61852 40.0713 4.22535 44.5902L0 60L15.8415 55.866C20.2101 58.2324 25.1229 59.4868 30.1217 59.4868H30.1361C46.5935 59.4868 60 46.144 60.0143 29.7505C60 21.8104 56.8919 14.3407 51.2485 8.72416ZM30.1217 54.4547C25.6529 54.4547 21.2843 53.2573 17.4743 51.005L16.572 50.4633L7.17594 52.9152L9.6825 43.7919L9.09525 42.851C6.60301 38.9166 5.29959 34.3692 5.29959 29.7078C5.29959 16.1083 16.4431 5.01782 30.1361 5.01782C36.7677 5.01782 42.9983 7.598 47.6963 12.2594C52.38 16.9351 54.9582 23.1361 54.9582 29.7363C54.9439 43.3785 43.8004 54.4547 30.1217 54.4547ZM43.7431 35.9515C42.9983 35.5809 39.3316 33.7847 38.6441 33.5282C37.9566 33.2858 37.4552 33.1575 36.9683 33.8988C36.4669 34.6401 35.0346 36.3222 34.6049 36.8068C34.1752 37.3058 33.7312 37.3628 32.9864 36.9922C32.2416 36.6215 29.8353 35.8375 26.985 33.3001C24.7649 31.3329 23.2752 28.8952 22.8312 28.154C22.4015 27.4127 22.7883 27.0135 23.1607 26.6429C23.4901 26.315 23.9055 25.7733 24.2779 25.3457C24.6503 24.918 24.7792 24.6044 25.0227 24.1055C25.2662 23.6066 25.1516 23.1789 24.9654 22.8083C24.7792 22.4376 23.2896 18.7741 22.6593 17.2915C22.0578 15.8375 21.4419 16.0371 20.9835 16.0228C20.5538 15.9943 20.0525 15.9943 19.5512 15.9943C19.0499 15.9943 18.2478 16.1796 17.5603 16.9209C16.8728 17.6622 14.9534 19.4583 14.9534 23.1219C14.9534 26.7855 17.6319 30.3065 18.0043 30.8054C18.3767 31.3043 23.2609 38.8026 30.752 42.0242C32.528 42.794 33.9174 43.2502 35.006 43.5923C36.7964 44.1625 38.4149 44.077 39.704 43.8917C41.1363 43.6778 44.1155 42.0955 44.7458 40.3564C45.3617 38.6172 45.3617 37.1347 45.1755 36.8211C44.9893 36.5075 44.4879 36.3222 43.7431 35.9515Z" fill="white"/>
</g>
<defs>
<clipPath id="clip0_157_649">
<rect width="60" height="60" fill="white"/>
</clipPath>
</defs>
</svg>
