<svg width="70" height="78" viewBox="0 0 70 78" fill="none" xmlns="http://www.w3.org/2000/svg">
<g clip-path="url(#clip0_1051_4212)">
<path d="M65.4694 16.2474L52.6139 8.90489L39.0529 1.09367C37.8177 0.393835 36.4211 0.0258789 35.0002 0.0258789C33.5793 0.0258789 32.1828 0.393835 30.9476 1.09367L17.6217 8.68618L4.04504 16.4974C2.79856 17.2181 1.76698 18.2562 1.05616 19.5054C0.345349 20.7546 -0.0190936 22.1697 0.00024302 23.6056V54.4443C0.0406584 55.9285 0.483093 57.3742 1.2807 58.6283C2.0783 59.8824 3.20139 60.8982 4.53104 61.5681L17.3866 69.1607L30.9476 76.7532C32.1828 77.453 33.5793 77.821 35.0002 77.821C36.4211 77.821 37.8177 77.453 39.0529 76.7532L52.3787 69.1607L65.9554 61.3494C67.1981 60.6802 68.2324 59.6838 68.9456 58.4689C69.6589 57.254 70.0237 55.8673 70.0002 54.4599V23.4338C69.9711 21.9389 69.5339 20.4801 68.7357 19.214C67.9375 17.948 66.8083 16.9224 65.4694 16.2474ZM59.1984 58.1H53.4762C48.511 62.859 41.8895 65.5174 35.0002 65.5174C28.111 65.5174 21.4894 62.859 16.5243 58.1H10.8334C9.91736 58.0958 9.01837 57.8529 8.22566 57.3954C7.43296 56.938 6.7741 56.2819 6.31451 55.4923C5.85492 54.7026 5.61057 53.807 5.60573 52.8942C5.60089 51.9814 5.83573 51.0832 6.28692 50.2887L9.12454 45.3052C7.41843 38.6214 8.40129 31.5379 11.8634 25.5662C15.3254 19.5945 20.9926 15.2076 27.6553 13.3417L30.4459 8.52995C30.9093 7.73553 31.5738 7.07621 32.373 6.61793C33.1722 6.15965 34.0781 5.91845 35.0002 5.91845C35.9223 5.91845 36.8283 6.15965 37.6275 6.61793C38.4267 7.07621 39.0912 7.73553 39.5546 8.52995L42.3295 13.3417C48.9951 15.2043 54.666 19.5898 58.1312 25.5619C61.5964 31.534 62.5814 38.6193 60.8759 45.3052L63.7136 50.195C64.1882 50.9918 64.4421 51.8999 64.4492 52.8265C64.4563 53.7531 64.2164 54.6649 63.7541 55.4689C63.2917 56.2728 62.6234 56.94 61.8175 57.4023C61.0116 57.8646 60.097 58.1053 59.1671 58.1H59.1984Z" fill="#094E8C"/>
<path d="M42.3294 13.3417L39.5545 8.52996C39.0911 7.73553 38.4267 7.07622 37.6274 6.61794C36.8282 6.15965 35.9223 5.91846 35.0002 5.91846C34.0781 5.91846 33.1721 6.15965 32.3729 6.61794C31.5737 7.07622 30.9092 7.73553 30.4459 8.52996L27.6553 13.3417C32.4552 11.9704 37.5452 11.9704 42.3451 13.3417H42.3294Z" fill="#89BAE4"/>
<path d="M9.1244 45.3052L6.2711 50.2419C5.81991 51.0363 5.58508 51.9345 5.58992 52.8473C5.59476 53.7601 5.8391 54.6558 6.29869 55.4454C6.75829 56.235 7.41714 56.8911 8.20985 57.3485C9.00256 57.806 9.90155 58.0489 10.8176 58.0531H16.5085C12.891 54.5819 10.3313 50.1629 9.1244 45.3052Z" fill="#89BAE4"/>
<path d="M60.8759 45.3052C59.6645 50.1646 57.0993 54.5839 53.4761 58.0531H59.167C60.083 58.0489 60.982 57.806 61.7747 57.3485C62.5674 56.8911 63.2263 56.235 63.6859 55.4454C64.1455 54.6558 64.3898 53.7601 64.3947 52.8473C64.3995 51.9345 64.1647 51.0363 63.7135 50.2419L60.8759 45.3052Z" fill="#89BAE4"/>
<path d="M8.29347 38.9157C8.30919 41.0713 8.58821 43.217 9.12438 45.3053L27.6552 13.3418C22.0742 14.9233 17.1636 18.2765 13.6691 22.8922C10.1746 27.5079 8.28722 33.1339 8.29347 38.9157Z" fill="#107CBE"/>
<path d="M34.992 65.5208C41.8844 65.5219 48.5092 62.8622 53.4758 58.1001H16.5239C21.4866 62.8585 28.1051 65.5179 34.992 65.5208Z" fill="#107CBE"/>
<path d="M61.7065 38.9157C61.7118 33.1318 59.8221 27.5043 56.3246 22.8884C52.8271 18.2725 47.913 14.9205 42.3291 13.3418L60.8756 45.3053C61.4117 43.217 61.6908 41.0713 61.7065 38.9157Z" fill="#107CBE"/>
<path d="M60.8759 45.305L42.3294 13.3414C37.5295 11.9702 32.4395 11.9702 27.6396 13.3414L9.12451 45.305C10.3358 50.1644 12.9011 54.5836 16.5243 58.0529H53.4761C57.0993 54.5836 59.6646 50.1644 60.8759 45.305Z" fill="white"/>
<path d="M49.5723 37.3688C49.7889 37.1553 49.9609 36.901 50.0783 36.6208C50.1956 36.3406 50.256 36.0399 50.256 35.7363C50.256 35.4326 50.1956 35.132 50.0783 34.8518C49.9609 34.5716 49.7889 34.3173 49.5723 34.1037L44.1792 28.8702C43.7579 28.463 43.1982 28.2288 42.6115 28.2141C42.3052 28.2147 42.002 28.2758 41.7194 28.3937C41.4369 28.5117 41.1806 28.6843 40.9653 28.9015L38.504 31.2448C38.4288 31.1252 38.3393 31.015 38.2375 30.9168L31.1199 24.0585C30.6823 23.6254 30.0905 23.3823 29.4737 23.3823C28.857 23.3823 28.2652 23.6254 27.8276 24.0585L20.8825 31.2448C20.6659 31.4584 20.4939 31.7127 20.3765 31.9929C20.2592 32.2731 20.1987 32.5737 20.1987 32.8774C20.1987 33.181 20.2592 33.4817 20.3765 33.7619C20.4939 34.0421 20.6659 34.2964 20.8825 34.5099L28.0001 41.4307L28.3293 41.6963L25.6641 44.4146C25.2295 44.8506 24.9855 45.4403 24.9855 46.0549C24.9855 46.6695 25.2295 47.2592 25.6641 47.6953L33.8321 55.6315C34.2534 56.0387 34.8131 56.2729 35.3998 56.2876C35.9916 56.2677 36.553 56.0215 36.9676 55.6002L44.9474 47.4453C45.3714 46.9976 45.6071 46.4049 45.6059 45.7893C45.5801 45.1978 45.3276 44.6386 44.9004 44.2271L43.7403 43.1023C43.8554 43.027 43.9607 42.9378 44.0538 42.8367L49.5723 37.3688ZM22.2621 33.1195C22.1882 33.0413 22.1471 32.9379 22.1471 32.8305C22.1471 32.7231 22.1882 32.6197 22.2621 32.5415L29.2072 25.4333C29.2857 25.3597 29.3895 25.3187 29.4973 25.3187C29.6051 25.3187 29.7088 25.3597 29.7873 25.4333L36.9049 32.354C36.9446 32.3894 36.9763 32.4327 36.9979 32.4812C37.0195 32.5297 37.0305 32.5822 37.0303 32.6352C37.0293 32.7439 36.9906 32.8488 36.9206 32.9321L35.588 34.2756L29.9754 40.0247C29.8966 40.1039 29.7895 40.1489 29.6776 40.1496C29.5737 40.1464 29.4741 40.1078 29.3954 40.0403L22.2621 33.1195ZM43.897 46.0862L35.9329 54.2255C35.8541 54.3047 35.747 54.3497 35.635 54.3504C35.5824 54.359 35.5286 54.3534 35.4789 54.3341C35.4293 54.3149 35.3857 54.2828 35.3528 54.2411L27.1692 46.2893C27.1295 46.2539 27.0978 46.2105 27.0762 46.1621C27.0545 46.1136 27.0435 46.0611 27.0437 46.0081C27.0447 45.8994 27.0835 45.7945 27.1535 45.7112L35.0549 37.4938C35.1647 37.3845 35.2901 37.4001 35.3528 37.3688C35.4059 37.3695 35.4583 37.381 35.5068 37.4025C35.5553 37.4239 35.5989 37.455 35.635 37.4938L41.0281 42.7273L43.897 45.5081C43.9367 45.5435 43.9684 45.5868 43.99 45.6353C44.0117 45.6838 44.0227 45.7363 44.0225 45.7893C44.0217 45.9009 43.9766 46.0076 43.897 46.0862ZM43.0191 41.3994C42.9812 41.4377 42.936 41.4681 42.8862 41.4888C42.8365 41.5095 42.783 41.5202 42.7291 41.5202C42.6751 41.5202 42.6217 41.5095 42.5719 41.4888C42.5221 41.4681 42.4769 41.4377 42.439 41.3994L37.046 36.1659C36.9516 36.1152 36.8791 36.0319 36.8422 35.9316C36.8429 35.82 36.888 35.7133 36.9676 35.6347L38.2845 34.2912L42.2195 30.2762C42.2575 30.238 42.3026 30.2076 42.3524 30.1869C42.4022 30.1661 42.4556 30.1555 42.5096 30.1555C42.5635 30.1555 42.617 30.1661 42.6668 30.1869C42.7165 30.2076 42.7617 30.238 42.7996 30.2762L48.1927 35.5098C48.2592 35.5964 48.3023 35.6986 48.3181 35.8066C48.3174 35.8595 48.3059 35.9117 48.2843 35.96C48.2628 36.0084 48.2316 36.0518 48.1927 36.0878L43.0191 41.3994Z" fill="#094E8C"/>
</g>
<defs>
<clipPath id="clip0_1051_4212">
<rect width="70" height="77.8154" fill="white"/>
</clipPath>
</defs>
</svg>
