<svg width="48" height="48" viewBox="0 0 48 48" fill="none" xmlns="http://www.w3.org/2000/svg">
<path d="M47.2489 1.13182C47.8381 1.55287 48.0792 2.11427 47.972 2.81603L41.1152 43.2371C41.0259 43.7459 40.7402 44.1406 40.2581 44.4213C40.0081 44.5616 39.7313 44.6318 39.4278 44.6318C39.2314 44.6318 39.0171 44.588 38.785 44.5002L24.6695 38.8423L16.6877 47.4476C16.3663 47.816 15.9467 48.0002 15.4289 48.0002C15.1789 48.0002 14.9735 47.9651 14.8128 47.895C14.4735 47.7722 14.2057 47.566 14.0093 47.2766C13.8129 46.9871 13.7146 46.6669 13.7146 46.316V34.4213L1.07235 29.3423C0.411669 29.0967 0.0545416 28.6143 0.000972608 27.895C-0.0525964 27.2108 0.233105 26.6932 0.858077 26.3423L45.4275 1.07919C46.0525 0.710765 46.6596 0.728308 47.2489 1.13182ZM38.0886 40.5792L44.0079 5.7634L5.59894 27.5266L14.5985 31.1318L37.7136 14.316L24.9106 35.2897L38.0886 40.5792Z" fill="black"/>
</svg>
